<svg class="icon-small" width="9" height="12" xmlns="http://www.w3.org/2000/svg" fillRule="evenodd" clipRule="evenodd" strokeLineJoin="round" strokeMiterlimit="1.414"><path d="M8.201 9.612c.117.206.22.463.308.772.088.308.14.624.155.947-.868.338-1.859.507-2.977.507-1.881 0-3.299-.532-4.254-1.598C.478 9.175 0 7.738 0 5.93a7.5 7.5 0 0 1 .353-2.337A5.305 5.305 0 0 1 1.4 1.72 4.931 4.931 0 0 1 3.131.464C3.821.155 4.622 0 5.534 0c.617 0 1.161.037 1.631.11.47.074.919.192 1.345.354-.001.249-.034.54-.099.87a3.81 3.81 0 0 1-.277.871c-.72-.25-1.542-.375-2.469-.375-1.131 0-1.977.375-2.535 1.124-.558.75-.837 1.742-.837 2.976 0 1.411.315 2.444.948 3.098.631.654 1.499.981 2.601.981a7.77 7.77 0 0 0 1.224-.089 5.515 5.515 0 0 0 1.135-.308H8.2z" fill="#b11f29" fillRule="nonzero"/></svg>